<svg width="414" height="896" viewBox="0 0 414 896" fill="none" xmlns="http://www.w3.org/2000/svg">
<g clip-path="url(#clip0_3_3)">
<rect width="414" height="896" fill="white"/>
<path d="M295.5 125.5C303.5 107.1 377.833 97.1667 414 94.5V265.5C396.4 247.9 357 248.833 339.5 251.5C287 219.5 285.5 148.5 295.5 125.5Z" fill="#E6F8EA"/>
<path d="M287.337 56.5C278.937 31.3 312.17 8.33333 329.837 0H413.837V159.5C407.837 156.7 397.67 166.333 393.337 171.5C346.837 173.5 297.837 88 287.337 56.5Z" fill="#A2D8BE" fill-opacity="0.7"/>
<path d="M118.5 771C110.5 789.4 36.1667 799.333 1.52588e-05 802L3.02081e-05 631C17.6 648.6 57 647.667 74.5 645C127 677 128.5 748 118.5 771Z" fill="#E6F8EA"/>
<path d="M126.663 840C135.063 865.2 101.83 888.167 84.1631 896.5L0.163055 896.5L0.163069 737C6.16307 739.8 16.3297 730.167 20.6631 725C67.1631 723 116.163 808.5 126.663 840Z" fill="#A2D8BE" fill-opacity="0.7"/>
</g>
<defs>
<clipPath id="clip0_3_3">
<rect width="414" height="896" fill="white"/>
</clipPath>
</defs>
</svg>
